<?xml version="1.0" encoding="UTF-8" standalone="no"?>
<svg
   viewBox="0 0 500.00009 500"
   version="1.1"
   id="svg36"
   sodipodi:docname="med.svg"
   width="500.00009"
   height="500"
   inkscape:version="1.1.2 (0a00cf5339, 2022-02-04)"
   xmlns:inkscape="http://www.inkscape.org/namespaces/inkscape"
   xmlns:sodipodi="http://sodipodi.sourceforge.net/DTD/sodipodi-0.dtd"
   xmlns="http://www.w3.org/2000/svg"
   xmlns:svg="http://www.w3.org/2000/svg">
  <sodipodi:namedview
     id="namedview38"
     pagecolor="#ffffff"
     bordercolor="#666666"
     borderopacity="1.0"
     inkscape:pageshadow="2"
     inkscape:pageopacity="0.0"
     inkscape:pagecheckerboard="0"
     showgrid="false"
     fit-margin-top="0"
     fit-margin-left="0"
     fit-margin-right="0"
     fit-margin-bottom="0"
     inkscape:zoom="0.83854167"
     inkscape:cx="379.22981"
     inkscape:cy="250.43478"
     inkscape:window-width="1920"
     inkscape:window-height="1005"
     inkscape:window-x="0"
     inkscape:window-y="0"
     inkscape:window-maximized="1"
     inkscape:current-layer="svg36" />
  <defs
     id="defs5">
    <clipPath
       id="clip-path">
      <path
         d="m 381.79,242.59 c 0,3 -6,283.58 -6,283.58 0,5.15 -0.82,9.33 -6,9.33 -5.18,0 -6,-5.67 -6,-10.82 l -8.21,-282.83 c 0,-5.15 5.23,-9.7 14.18,-9.33 8.95,0.37 12.03,7.09 12.03,10.07 z"
         style="fill:none"
         id="path2" />
    </clipPath>
  </defs>
  <g
     id="med"
     transform="translate(-115,-134)">
    <circle
       cx="365"
       cy="384"
       r="250"
       style="fill:#29abe2"
       id="circle7" />
    <path
       d="M 602.13,304.64 417.55,206.39 234.9,518.65 417.23,628.52 C 530.23,604.5 615,504.16 615,384 a 249.74,249.74 0 0 0 -12.87,-79.36 z"
       style="opacity:0.4"
       id="path9" />
    <polygon
       points="417.24,299.15 417.24,199.67 317.99,199.67 317.99,297.26 233.11,248.26 184,333.33 271.02,383.57 185.12,433.17 234.09,518.01 317.99,469.57 317.99,568.33 417.24,568.33 417.24,467.99 504.16,518.18 553.28,433.11 467.21,383.42 553.59,333.55 504.61,248.71 "
       style="fill:#e52e2e"
       id="polygon11" />
    <polygon
       points="417.24,259.52 369.48,233.25 361.27,536.24 417.24,560.32 417.24,467.99 504.16,518.18 553.28,433.11 467.21,383.42 552.75,334.03 452.4,278.85 417.24,299.15 "
       style="opacity:0.4"
       id="polygon13" />
    <path
       d="m 381.79,242.59 c 0,3 -6,283.58 -6,283.58 0,5.15 -0.82,9.33 -6,9.33 -5.18,0 -6,-5.67 -6,-10.82 l -8.21,-282.83 c 0,-5.15 5.23,-9.7 14.18,-9.33 8.95,0.37 12.03,7.09 12.03,10.07 z"
       style="fill:#ffffff"
       id="path15" />
    <g
       clip-path="url(#clip-path)"
       id="g19">
      <line
         x1="379.92999"
         y1="198.94"
         x2="371.72"
         y2="620.58002"
         style="opacity:0.4;fill:none;stroke:#000000;stroke-width:16px;stroke-miterlimit:10"
         id="line17" />
    </g>
    <rect
       x="336.92999"
       y="378.67001"
       width="70.260002"
       height="18.629999"
       rx="8.6800003"
       transform="rotate(-42.99,372.09502,388.00268)"
       style="fill:#ffffff"
       id="rect21" />
    <path
       d="m 390.29,368.76 c -5.4,4.14 -11,8.1 -16.68,11.94 -5.68,3.84 -11.44,7.63 -17,11.64 -2.76,2 -5.48,4.07 -8.12,6.21 -0.65,0.52 -1.38,1.09 -1.92,1.6 a 7.75,7.75 0 0 0 -2.38,6.39 7.86,7.86 0 0 0 1.88,4.32 23.77,23.77 0 0 0 1.72,1.75 8.82,8.82 0 0 0 2,1.25 8.07,8.07 0 0 0 4.62,0.42 7.74,7.74 0 0 0 3.92,-2.2 c 9.39,-9.83 17.83,-20.68 26.55,-31.22 q 3.25,-4 6.6,-7.85 l 0.83,-1 0.42,-0.48 c 0.1,-0.11 0.06,-0.09 0.07,-0.13 v -0.06 a 0.89,0.89 0 0 0 0,-0.43 1.15,1.15 0 0 0 -0.35,-0.63 0.44,0.44 0 0 0 -0.45,-0.08 v 0 l -0.2,-0.19 -0.46,-0.44 -0.23,-0.22 c -0.06,-0.06 0,0 0,0 v 0 c 0,0 0,0 0,0 a 0.8,0.8 0 0 0 -0.82,-0.59 z m -10.48,-11.25 a 17.32,17.32 0 0 1 3.84,-2.94 17.07,17.07 0 0 1 4.59,-1.72 16.11,16.11 0 0 1 9.77,0.95 16.37,16.37 0 0 1 4.25,2.72 c 0.3,0.28 0.6,0.58 0.9,0.88 l 0.4,0.41 0.21,0.25 1,1.26 a 16.54,16.54 0 0 1 3.58,9.09 16.16,16.16 0 0 1 -2.06,9.26 15,15 0 0 1 -2.91,3.71 l -0.43,0.4 a 4.6,4.6 0 0 1 -0.38,0.32 l -0.51,0.38 -1,0.77 q -4.1,3.06 -8.29,6 c -11.12,8 -22.53,15.63 -33,24.3 a 9.74,9.74 0 0 1 -10.42,1.35 10.65,10.65 0 0 1 -2.26,-1.49 24.53,24.53 0 0 1 -1.78,-1.92 9.26,9.26 0 0 1 -2.15,-4.86 9.42,9.42 0 0 1 0.77,-5.3 8.79,8.79 0 0 1 1.47,-2.33 c 0.31,-0.37 0.61,-0.67 0.9,-1 l 0.87,-0.94 c 2.32,-2.48 4.56,-5.05 6.76,-7.67 4.38,-5.24 8.54,-10.74 12.79,-16.12 4.25,-5.38 8.58,-10.65 13.09,-15.76 z"
       style="fill:#ffffff"
       id="path23" />
    <rect
       x="342.82999"
       y="453.63"
       width="53.299999"
       height="13.43"
       rx="6.2600002"
       transform="rotate(-50.25,369.49313,460.36102)"
       style="fill:#ffffff"
       id="rect25" />
    <path
       d="M 381.9,444.15 C 374.65,451.43 366.59,458 359,465 c -1.87,1.77 -3.72,3.55 -5.49,5.41 -0.45,0.46 -0.9,0.92 -1.33,1.39 a 7.94,7.94 0 0 0 -1.09,1.38 5.42,5.42 0 0 0 -0.67,3.34 5.65,5.65 0 0 0 1.46,3.14 15.25,15.25 0 0 0 1.4,1.18 5.28,5.28 0 0 0 1.54,0.81 5.44,5.44 0 0 0 6.11,-1.9 c 6.11,-8.21 11.42,-17.09 16.93,-25.8 2.38,-4 7,-10.37 5.18,-9 a 0.21,0.21 0 0 0 -0.27,0.1 c 0,0 0,0 0,0 v 0 l -0.15,-0.12 -0.39,-0.28 -0.19,-0.15 v 0 c 0,0 0,0.07 0.07,0.06 0.07,-0.01 0.07,-0.36 -0.21,-0.41 z m -9.09,-7.55 a 12.28,12.28 0 0 1 6.1,-4.32 11.85,11.85 0 0 1 7.6,0.12 11.62,11.62 0 0 1 3.41,1.89 l 0.38,0.31 0.18,0.16 0.35,0.33 0.56,0.53 c 0.22,0.23 0.46,0.45 0.67,0.7 a 12.39,12.39 0 0 1 3,6.91 12,12 0 0 1 -1.53,7.15 11.17,11.17 0 0 1 -1,1.51 c -0.18,0.22 -0.41,0.49 -0.57,0.65 l -0.34,0.34 -1.39,1.34 c -1.85,1.78 -3.73,3.55 -5.63,5.29 -7.56,7 -15.33,13.85 -22.29,21.36 a 7.15,7.15 0 0 1 -7.79,1.84 6.35,6.35 0 0 1 -1.81,-1 14.07,14.07 0 0 1 -1.49,-1.33 6.8,6.8 0 0 1 -1.79,-3.67 7.08,7.08 0 0 1 0.54,-4.1 8.85,8.85 0 0 1 1.1,-1.75 c 0.39,-0.51 0.76,-1 1.13,-1.56 1.5,-2.08 2.91,-4.23 4.31,-6.39 C 362,454.18 367,445 372.81,436.6 Z"
       style="fill:#ffffff"
       id="path27" />
    <rect
       x="351.94"
       y="511.89999"
       width="39.18"
       height="13.43"
       rx="6.2600002"
       transform="rotate(-50.25,371.54801,518.63167)"
       style="fill:#ffffff"
       id="rect29" />
    <path
       d="m 378.28,506.9 c -2.81,2.77 -5.77,5.43 -8.79,8 -3.02,2.57 -6.07,5.19 -8.91,7.95 -0.71,0.68 -1.41,1.38 -2.09,2.09 a 5.26,5.26 0 0 0 -1.34,2.26 5.41,5.41 0 0 0 1.15,5.06 7.1,7.1 0 0 0 1,0.93 6.68,6.68 0 0 0 1.14,0.79 5.3,5.3 0 0 0 5,0.06 5.3,5.3 0 0 0 1.83,-1.65 c 4.47,-6.51 8.45,-13.44 12.77,-20.08 l 1.64,-2.48 c 0.09,-0.13 0,-0.11 0.07,-0.16 v -0.1 c 0,-0.08 0,-0.14 0,-0.21 a 1.21,1.21 0 0 0 0,-0.38 1.39,1.39 0 0 0 -0.64,-1 c 0,0 -0.06,-0.05 -0.11,-0.06 l -0.07,-0.06 -0.28,-0.24 -0.51,-0.41 a 2.09,2.09 0 0 0 -0.44,-0.32 1.53,1.53 0 0 0 -1.42,0.01 z m -6.79,-5.65 a 11,11 0 0 1 9,-4.45 10.36,10.36 0 0 1 5.14,1.42 11.78,11.78 0 0 1 1.86,1.33 l 0.28,0.24 c 0.12,0.11 0.33,0.29 0.48,0.44 a 8.64,8.64 0 0 1 0.91,1 11,11 0 0 1 2,10 10.05,10.05 0 0 1 -1,2.38 11.17,11.17 0 0 1 -0.71,1.08 l -0.41,0.49 c -0.12,0.14 -0.31,0.37 -0.37,0.42 l -2.14,2.06 c -5.75,5.46 -11.83,10.63 -17.42,16.22 a 7.4,7.4 0 0 1 -6.15,2.21 6.85,6.85 0 0 1 -3,-1.07 10.28,10.28 0 0 1 -1.23,-1 8.22,8.22 0 0 1 -1.11,-1.1 7.2,7.2 0 0 1 -1.49,-6 7.42,7.42 0 0 1 1.3,-3 c 0.58,-0.8 1.14,-1.61 1.68,-2.44 2.2,-3.29 4.17,-6.77 6.19,-10.2 2.02,-3.43 3.98,-6.75 6.19,-10.03 z"
       style="fill:#ffffff"
       id="path31" />
    <path
       d="m 358.28,343.71 -25.22,-47.8 a 9.09,9.09 0 0 1 -1.2,-4.27 c -0.81,-6.29 6.55,-15.1 17.88,-20.83 12.69,-6.43 25.55,-6.55 28.72,-0.27 3.17,6.28 -4.53,16.57 -17.22,23 a 49.54,49.54 0 0 1 -7,2.91 19,19 0 0 1 3.3,8.47 z"
       style="fill:#ffffff;stroke:#ffffff;stroke-miterlimit:10"
       id="path33" />
  </g>
</svg>
